# xmcd CD database file
#
# Track frame offsets:
#	150
#	22597
#	42217
#	52811
#	64561
#	80845
#	99677
#	110556
#	123787
#	145572
#	166989
#	188341
#	204613
#	219798
#
# Disc length: 3098 seconds
#
# Revision: 0
# Processed by: cddbd v1.4PL0 Copyright (c) Steve Scherf et al.
# Submitted via: CDex 1.50beta9
#
DISCID=aa0c180e
DTITLE=Laura Caviani - In Your Own Sweet Way
DYEAR=2001
DGENRE=Jazz
TTITLE0=My Romance
TTITLE1=The Mockingbird Song
TTITLE2=Dance to your Daddy
TTITLE3=Scottish Spirit
TTITLE4=Monk's Dream
TTITLE5=Cry Me a River
TTITLE6=Lullaby
TTITLE7=Rocking
TTITLE8=The Water is Wide
TTITLE9=In Your Own Sweet Way
TTITLE10=In a Sentimental Mood
TTITLE11=I hate to See You Go
TTITLE12=Do Nothing 'til You Hear From Me
TTITLE13=Sleep Baby Sleep
EXTD=YEAR: 2001
EXTT0=
EXTT1=
EXTT2=
EXTT3=
EXTT4=
EXTT5=
EXTT6=
EXTT7=
EXTT8=
EXTT9=
EXTT10=
EXTT11=
EXTT12=
EXTT13=
PLAYORDER=
